<svg xmlns="http://www.w3.org/2000/svg"  viewBox="0 0 24 24"><g fill="none" fill-rule="evenodd"><path d="M24 0v24H0V0zM12.594 23.258l-.012.002l-.071.035l-.02.004l-.014-.004l-.071-.036q-.016-.004-.024.006l-.004.01l-.017.428l.005.02l.01.013l.104.074l.015.004l.012-.004l.104-.074l.012-.016l.004-.017l-.017-.427q-.004-.016-.016-.018m.264-.113l-.014.002l-.184.093l-.01.01l-.003.011l.018.43l.005.012l.008.008l.201.092q.019.005.029-.008l.004-.014l-.034-.614q-.005-.018-.02-.022m-.715.002a.02.02 0 0 0-.027.006l-.006.014l-.034.614q.001.018.017.024l.015-.002l.201-.093l.01-.008l.003-.011l.018-.43l-.003-.012l-.01-.01z"/><path fill="currentColor" d="M17.11 3.006a1 1 0 0 1 .736.46c3.2 5.067 2.717 10.446.044 13.834c-1.335 1.691-3.21 2.871-5.397 3.22c-1.908.303-3.993-.036-6.094-1.136c-.193.609-.33 1.2-.409 1.757a1 1 0 0 1-1.98-.282a13.5 13.5 0 0 1 .702-2.718c-1.537-1.69-1.957-3.828-1.77-5.738c.206-2.107 1.167-4.128 2.418-5.171c1.672-1.393 3.428-1.965 4.952-2.245a24 24 0 0 1 2.01-.261c.479-.048.968-.08 1.436-.196a6.8 6.8 0 0 0 1.962-.816c.442-.276.819-.772 1.39-.708M7.15 17.518c1.112-2.267 2.93-4.44 5.297-5.624a1 1 0 1 0-.894-1.789c-2.608 1.304-4.606 3.559-5.905 5.964a4.9 4.9 0 0 0 .95 1.125q.278.173.553.324Z"/></g></svg>