<?xml version="1.0" encoding="UTF-8" standalone="no"?>
<svg xmlns="http://www.w3.org/2000/svg" xmlns:dc="http://purl.org/dc/elements/1.1/" xmlns:cc="http://creativecommons.org/ns#" xmlns:rdf="http://www.w3.org/1999/02/22-rdf-syntax-ns#" xmlns:xlink="http://www.w3.org/1999/xlink" xmlns:sodipodi="http://sodipodi.sourceforge.net/DTD/sodipodi-0.dtd" width="973" height="609" viewBox="-1 -1 917.39423 574.19556" version="1.1" sodipodi:docname="Flag-map_of_the_United_States.svg"><script xmlns=""/>
  <metadata>
    <rdf:RDF>
      <cc:Work rdf:about="">
        <dc:format>image/svg+xml</dc:format>
        <dc:type rdf:resource="http://purl.org/dc/dcmitype/StillImage"/>
      </cc:Work>
    </rdf:RDF>
  </metadata>
  <defs>
    <polygon id="pt" points="-0.16245985,0 0,-0.5 0.16245985,0" transform="scale(0.0616,0.0616)" style="fill:#ffffff"/>
    <g id="star">
      <use xlink:href="#pt" transform="rotate(72)"/>
      <use xlink:href="#pt" transform="rotate(-72)"/>
      <use xlink:href="#pt"/>
      <use xlink:href="#pt" transform="rotate(-144)"/>
      <use xlink:href="#pt" transform="rotate(144)"/>
    </g>
    <g id="s5">
      <use xlink:href="#star" x="-0.252"/>
      <use xlink:href="#star" x="-0.126"/>
      <use xlink:href="#star"/>
      <use xlink:href="#star" x="0.126"/>
      <use xlink:href="#star" x="0.252"/>
    </g>
    <g id="s6">
      <use xlink:href="#s5" x="-0.063"/>
      <use xlink:href="#star" x="0.315"/>
    </g>
    <g id="x4">
      <use xlink:href="#s6"/>
      <use xlink:href="#s5" y="0.054"/>
      <use xlink:href="#s6" y="0.108"/>
      <use xlink:href="#s5" y="0.162"/>
    </g>
    <g id="u">
      <use xlink:href="#x4" y="-0.216"/>
      <use xlink:href="#x4"/>
      <use xlink:href="#s6" y="0.216"/>
    </g>
<path id="Canton" d="M74.1959,12.6477 C74.1959,12.3481,74.4385,11.9531,74.735,11.7698 C75.0315,11.5866,75.274,11.0495,75.274,10.5763 C75.274,9.82794,75.1333,9.84334,74.1926,10.6947 C72.9644,11.8062,73.0244,11.8373,71.8167,9.46298 C70.7547,7.37526,71.1353,6.44018,72.8697,6.87548 C73.5579,7.04823,74.7193,6.96215,75.4504,6.68418 C77.6224,5.85838,78.6708,6.99533,77.9031,9.34405 C77.564,10.3817,77.1121,11.5946,76.899,12.0393 C76.4561,12.9636,74.1959,13.4723,74.1959,12.6477Z M237.261,311.757 C123.264,311.757,30.0016,311.575,30.0121,311.352 C30.0226,311.13,30.3779,310.342,30.8016,309.6 C31.8156,307.827,31.8156,305.051,30.8016,304.21 C30.3569,303.841,29.993,303.208,29.993,302.804 C29.993,302.4,28.7533,299.707,27.2382,296.819 C25.723,293.931,23.5293,288.905,22.3633,285.65 C21.1973,282.395,19.526,278.479,18.6494,276.946 C17.5717,275.063,17.0556,273.42,17.0556,271.873 C17.0556,269.885,17.3433,269.322,19.2496,267.58 C21.2014,265.796,21.4246,265.342,21.2711,263.468 C21.1336,261.79,20.7987,261.219,19.624,260.659 C14.7434,258.331,12.6317,250.534,14.6752,242.386L15.5291,238.98L12.7885,235.7 L10.0478,232.421V227.656 C10.0478,223.571,10.1825,222.856,10.9911,222.644 C11.6202,222.48,11.4781,222.377,10.5644,222.335 C9.57569,222.29,8.96758,221.785,8.37986,220.521 C7.93192,219.557,6.50987,216.737,5.21974,214.254L2.87405,209.74L3.54035,205.36 C3.90681,202.951,4.67188,199.593,5.24051,197.897 C6.73682,193.436,6.57584,190.224,4.62092,185.538 C3.71153,183.357,2.70602,180.846,2.38647,179.956 C2.06692,179.067,1.60304,178.078,1.35564,177.758 C0.343511,176.451,2.21156,172.443,5.5955,168.661 C9.69143,164.083,12.9052,156.569,13.5177,150.14 C13.7242,147.971,14.2108,145.142,14.5991,143.852 C15.2326,141.747,15.2017,141.35,14.2971,139.978 C13.183,138.288,13.0232,136.452,13.7839,134.082 C14.0599,133.223,14.4436,130.649,14.6365,128.363 C14.9793,124.301,15.1034,124.014,20.1127,115.695 C25.5347,106.691,30.2655,97.6408,31.8885,93.1678 C32.4264,91.6854,33.069,90.2421,33.3165,89.9604 C33.5639,89.6788,33.7686,88.9511,33.7714,88.3433 C33.7741,87.7355,34.8877,84.5698,36.246,81.3085 C37.6043,78.0472,40.0102,71.8358,41.5924,67.5054 C43.1745,63.1751,45.0099,58.4813,45.671,57.0749 C46.8125,54.6464,46.8281,54.4418,45.9798,53.0059 C44.5316,50.5541,44.8311,49.3868,47.2214,48.1673 C48.3956,47.5683,49.9117,47.0629,50.5906,47.0441L51.8249,47.0099L50.612,46.5224 C49.945,46.2542,49.3992,45.6717,49.3992,45.2279 C49.3992,44.784,48.9003,44.1539,48.2906,43.8276 C47.4228,43.3631,47.2179,42.803,47.3472,41.2481 C47.4975,39.4419,47.6712,39.2466,49.2644,39.0929 C51.3094,38.8958,51.3394,38.8077,50.0059,36.9193 C48.4165,34.6685,47.7702,30.4467,48.144,24.7565 C48.4179,20.5869,48.3049,19.1603,47.5423,17.1637 C46.7304,15.0375,46.6924,14.3245,47.2613,11.8898 C48.1475,8.09708,49.2174,5.57063,49.9373,5.57063 C50.2636,5.57063,52.0274,7.01288,53.8569,8.77563 C57.3625,12.1532,60.5403,13.9626,67.1881,16.3659 C72.8515,18.4133,75.274,18.8078,75.274,17.6824 C75.274,16.5413,78.3353,13.486,79.0415,13.9224 C79.9827,14.5041,79.6359,16.4085,78.4077,17.403L77.229,18.3576L78.812,20.799 C81.8857,25.5394,81.8159,25.4778,81.4044,23.0901 C80.6876,18.9314,80.7508,14.4753,81.558,12.2615 C82.3206,10.17,82.2909,9.88414,80.974,6.6432 C79.4322,2.84885,79.2578,1.49855,80.2603,1.11711 C80.6309,0.976097,83.2386,1.53473,86.0552,2.35851 C95.6923,5.17711,134.289,15.2625,145.891,17.9935 C166.924,22.9447,206.76,31.1826,226.75,34.7149 C247.248,38.3368,288.336,44.5239,296.558,45.2265 C298.04,45.3532,308.471,46.4248,319.738,47.6077 C363.308,52.1826,375.729,53.101,407.335,54.0845 C445.561,55.2741,444.53,55.22,444.53,56.0366V311.757"/>
<clipPath id="clip1x"><use xlink:href="#Canton"/></clipPath>
  </defs>
  <path style="fill:#b22234;fill-opacity:1;fill-rule:evenodd;stroke:#b22234;stroke-width:1.4786967;stroke-linecap:round;stroke-linejoin:round;stroke-miterlimit:4;stroke-opacity:1;stroke-dasharray:none;stroke-dashoffset:0" d="m 436.64501,564.07927 c -2.91327,-2.00162 -5.09142,-2.64005 -9.50767,-2.7868 -2.73109,-0.0907 -2.9446,-0.16357 -4.97567,-1.69704 -1.61207,-1.21713 -2.79881,-1.76249 -4.93743,-2.26899 -1.5484,-0.36671 -4.44953,-1.40284 -6.44693,-2.30251 -3.35951,-1.51317 -3.71094,-1.77307 -4.68966,-3.46828 -0.62281,-1.07875 -1.32913,-3.18054 -1.71715,-5.10975 -0.64025,-3.18322 -0.70446,-3.30764 -2.2387,-4.33805 -1.66499,-1.11822 -2.53562,-2.61416 -1.94044,-3.33414 0.18965,-0.22942 0.39254,-1.19902 0.45086,-2.15467 0.0917,-1.5021 -0.0257,-1.84122 -0.86648,-2.50254 -0.96468,-0.75882 -0.96797,-0.77836 -0.40817,-2.42129 l 0.56436,-1.65629 20.85184,0 c 11.46851,0 20.85184,0.12503 20.85184,0.27784 0,0.15281 -0.65948,2.58549 -1.46551,5.40596 -2.10096,7.35172 -2.16467,8.4361 -0.783,13.329 0.62761,2.22256 1.39683,5.63018 1.70938,7.5725 0.31255,1.94231 0.89443,4.08427 1.29305,4.75989 0.39863,0.67562 0.72477,1.46738 0.72477,1.75946 0,0.56777 -2.79579,2.76718 -3.47495,2.73369 -0.22364,-0.011 -1.5711,-0.82012 -2.99434,-1.79799 z" id="path3142"/>
  <path style="fill:#b22234;fill-opacity:1;fill-rule:evenodd;stroke:#b22234;stroke-width:1.4786967;stroke-linecap:round;stroke-linejoin:round;stroke-miterlimit:4;stroke-opacity:1;stroke-dasharray:none;stroke-dashoffset:0" d="m 768.20979,558.39811 c -0.99324,-0.50255 -1.20402,-1.03837 -1.84889,-4.70004 -0.55792,-3.16796 -3.19311,-7.29756 -5.65168,-8.85674 -2.14547,-1.36062 -6.02906,-1.95712 -6.4027,-0.98343 -0.37977,0.98967 -3.0223,-3.03268 -3.52148,-5.36024 -0.46873,-2.18565 -2.50084,-5.51562 -3.94222,-6.46005 -0.91921,-0.60229 -0.96787,-0.58933 -1.89811,0.5055 -1.21308,1.42772 -2.04906,1.16348 -2.99361,-0.94625 l -0.69752,-1.55794 21.42303,0 21.42303,0 0,3.13692 c 0,1.72531 0.19146,3.85277 0.42546,4.72769 0.61964,2.31676 0.17907,4.14766 -1.12838,4.68922 -0.99636,0.41271 -1.06722,0.59338 -1.28482,3.27576 -0.12667,1.56142 -0.0741,3.49544 0.11681,4.29782 0.32565,1.36867 0.26511,1.55151 -0.97928,2.95739 -1.76347,1.99233 -4.20661,3.15127 -6.65589,3.15731 -1.54703,0.004 -2.006,0.1509 -2.3238,0.74471 -0.29078,0.54334 -2.57363,1.90238 -3.09463,1.84231 -0.026,-0.003 -0.46039,-0.21447 -0.96532,-0.46994 z" id="path3146"/>
  <path style="fill:#b22234;fill-opacity:1;fill-rule:evenodd;stroke:#b22234;stroke-width:1.4786967;stroke-linecap:round;stroke-linejoin:round;stroke-miterlimit:4;stroke-opacity:1;stroke-dasharray:none;stroke-dashoffset:0" d="m 759.33147,571.09055 c 0,-0.19354 0.62295,-0.95688 1.38432,-1.69632 1.26106,-1.22472 1.51617,-1.32337 2.86498,-1.10789 1.39312,0.22255 2.36867,0.74335 2.01052,1.0733 -0.24488,0.2256 -5.51667,2.08279 -5.91218,2.08279 -0.1912,0 -0.34764,-0.15835 -0.34764,-0.35188 z" id="path3148"/>
  <path style="fill:#b22234;fill-opacity:1;fill-rule:evenodd;stroke:#b22234;stroke-width:1.4786967;stroke-linecap:round;stroke-linejoin:round;stroke-miterlimit:4;stroke-opacity:1;stroke-dasharray:none;stroke-dashoffset:0" d="m 769.1685,567.81147 c -0.19542,-0.31618 4.49743,-3.22924 4.76736,-2.95931 0.2073,0.20731 -3.72952,3.2632 -4.2039,3.2632 -0.20661,0 -0.46017,-0.13675 -0.56346,-0.30389 z" id="path3150"/>
  <path style="fill:#b22234;fill-opacity:1;fill-rule:evenodd;stroke:#b22234;stroke-width:1.4786967;stroke-linecap:round;stroke-linejoin:round;stroke-miterlimit:4;stroke-opacity:1;stroke-dasharray:none;stroke-dashoffset:0" d="m 776.94698,561.91724 c 2.84892,-2.65539 4.73783,-5.80328 6.47666,-10.79348 1.21517,-3.48735 1.36025,-3.73917 1.38628,-2.40613 0.016,0.81887 -0.19255,1.81699 -0.46343,2.21804 -0.27087,0.40105 -1.06105,2.28805 -1.75595,4.19332 -1.19509,3.27669 -1.42013,3.61173 -4.1591,6.19204 -1.59261,1.50035 -3.08979,2.72518 -3.32707,2.72183 -0.23728,-0.003 0.59189,-0.95987 1.84261,-2.12562 l 0,0 z" id="path3158"/>
  <path style="fill:#b22234;fill-opacity:1;fill-rule:evenodd;stroke:#b22234;stroke-width:1.4786967;stroke-linecap:round;stroke-linejoin:round;stroke-miterlimit:4;stroke-opacity:1;stroke-dasharray:none;stroke-dashoffset:0" d="m 318.1284,485.76362 c -0.2256,-0.27183 -1.5489,-0.941 -2.94067,-1.48704 -2.20598,-0.86549 -3.00654,-1.47766 -6.2426,-4.77362 -2.54655,-2.59367 -4.07497,-4.50296 -4.86775,-6.08073 -1.08589,-2.16111 -1.15564,-2.54642 -1.15564,-6.38427 l 0,-4.08434 -1.65539,-3.29608 c -0.91046,-1.81285 -1.76057,-3.95382 -1.88912,-4.75772 -0.16041,-1.0032 -0.50316,-1.60583 -1.09278,-1.92139 -0.47249,-0.25286 -1.05321,-0.92848 -1.29051,-1.50136 -0.33382,-0.80591 -0.99787,-1.26383 -2.93468,-2.02372 -2.49878,-0.98037 -3.19558,-1.59919 -7.32018,-6.50103 l -0.8886,-1.05595 228.51773,0.0927 228.51771,0.0927 1.21649,3.69674 c 2.614,7.94374 4.38163,11.87131 8.7504,19.4429 3.47753,6.02694 5.09722,8.42666 7.5235,11.14656 1.70054,1.90637 3.67279,3.90919 4.38279,4.45072 0.70996,0.54153 1.70593,1.72726 2.21327,2.63495 1.64069,2.93554 2.59519,2.8042 -20.37829,2.8042 l -20.02573,0 0,-1.3889 c 0,-1.09995 -0.34686,-1.81136 -1.66719,-3.41949 -0.91698,-1.11682 -1.92623,-2.70753 -2.24278,-3.5349 l -0.57554,-1.50431 -3.50743,-0.84556 c -3.3189,-0.80011 -3.55605,-0.92254 -4.41159,-2.27781 -0.57669,-0.91357 -1.53695,-1.73601 -2.65159,-2.27105 -1.51744,-0.7284 -1.81614,-1.06427 -2.26936,-2.55168 -0.45411,-1.4903 -0.7005,-1.76638 -1.89606,-2.12458 -1.03856,-0.31116 -1.69037,-0.88799 -2.66912,-2.36209 -1.14728,-1.72792 -1.54335,-2.02822 -3.47254,-2.63288 -1.19763,-0.37538 -2.79473,-0.99536 -3.54909,-1.37774 -1.54941,-0.78539 -3.46651,-0.87869 -6.1648,-0.30002 -1.62483,0.34847 -1.87188,0.52769 -2.0888,1.51524 -0.14395,0.65536 -0.0771,1.2889 0.16106,1.52709 0.89595,0.89593 0.42498,1.36823 -1.36432,1.36823 -1.61824,0 -1.91387,0.14654 -3.41948,1.69511 -2.31302,2.37904 -5.33314,3.85 -7.9046,3.85 -1.11449,0 -2.46199,0.19848 -2.99443,0.44107 -1.07709,0.49076 -1.62753,0.0382 -1.66047,-1.36526 -0.0244,-1.03381 -1.42772,-2.51544 -2.95632,-3.12097 -0.70889,-0.28082 -1.62161,-0.79899 -2.02825,-1.15147 -0.40665,-0.35249 -2.5783,-1.55829 -4.82588,-2.67955 -5.44275,-2.71525 -11.25589,-4.17572 -14.45159,-3.63074 -1.19,0.20294 -3.55665,0.48203 -5.25922,0.6202 -1.94485,0.15784 -4.17892,0.64659 -6.00985,1.3148 -1.60285,0.58497 -3.86776,1.17564 -5.03314,1.31261 -1.16538,0.13697 -3.336,0.80369 -4.8236,1.48161 -2.56799,1.17027 -4.51214,1.57642 -4.51214,0.94262 0,-0.15949 0.49906,-0.58478 1.10903,-0.94509 0.60996,-0.36031 1.10902,-0.88247 1.10902,-1.16034 0,-0.71737 -2.95208,-6.19951 -3.63699,-6.75404 -0.31391,-0.25415 -0.94146,-0.46209 -1.39456,-0.46209 -0.66674,0 -0.94487,0.37005 -1.45872,1.94079 -0.34919,1.06743 -0.94818,2.56461 -1.33108,3.32706 -0.66447,1.32313 -0.78005,1.38628 -2.53704,1.38628 -1.34796,0 -2.03882,0.19797 -2.58021,0.73935 -0.93785,0.93786 -4.04853,1.00205 -6.69004,0.13805 -1.7926,-0.58633 -1.92669,-0.57623 -5.38783,0.406 -2.90293,0.82381 -3.71732,0.93081 -4.47092,0.58745 -0.50679,-0.23091 -0.96299,-0.37202 -1.01378,-0.31357 -0.0508,0.0584 -0.67925,1.03063 -1.39657,2.16042 -0.71733,1.1298 -2.24146,2.77724 -3.38697,3.66099 -2.86595,2.21107 -3.66526,3.38226 -3.12201,4.57456 0.28406,0.62345 0.83,0.99682 1.69478,1.15905 0.70164,0.13163 1.49764,0.32448 1.76888,0.42857 0.32488,0.12466 0.58202,-0.22963 0.75358,-1.03828 0.55959,-2.63773 3.50652,-4.98514 3.50652,-2.79317 0,0.46049 0.32604,1.44556 0.72452,2.18905 l 0.72453,1.3518 -0.81695,1.50465 c -0.75711,1.39445 -0.932,1.50487 -2.38805,1.5077 -1.76038,0.003 -1.96707,0.35834 -0.73935,1.26955 0.82901,0.61529 0.82779,0.61669 -0.36866,0.42421 -1.0982,-0.17668 -1.24773,-0.0799 -1.75595,1.13643 -0.30554,0.73126 -0.55553,1.46761 -0.55553,1.63633 0,0.16873 0.71705,0.80011 1.59343,1.40307 1.19754,0.82393 2.34278,1.20588 4.60958,1.53733 1.65888,0.24256 3.2115,0.67639 3.45025,0.96407 0.37181,0.44801 -0.43549,0.50845 -5.62619,0.42123 l -6.06027,-0.10183 -0.18484,-1.26447 c -0.22371,-1.53038 -0.75034,-1.7778 -1.6554,-0.77773 -0.37248,0.41159 -1.06734,0.74834 -1.54413,0.74834 -0.62044,0 -0.86689,0.21019 -0.86689,0.73935 0,0.72302 -0.24645,0.73935 -11.15882,0.73935 -10.96836,0 -11.1735,-0.0138 -12.01947,-0.80855 -0.62839,-0.59034 -1.45788,-0.85174 -3.07364,-0.96861 -2.0536,-0.14855 -2.21298,-0.22482 -2.21298,-1.05901 0,-0.49441 -0.3695,-1.54095 -0.8211,-2.32563 -0.69525,-1.20803 -1.08639,-1.47915 -2.55194,-1.76892 -1.25722,-0.24859 -1.96824,-0.21435 -2.59839,0.12513 -0.75119,0.40469 -0.97722,0.36493 -1.68535,-0.29643 -0.81391,-0.76015 -0.82712,-0.76045 -2.77256,-0.0625 -1.45706,0.52274 -1.98417,0.90736 -2.07034,1.51068 -0.15778,1.10476 2.34051,2.4178 3.9774,2.09043 0.62504,-0.12501 1.86353,-0.0237 2.7522,0.22509 1.31526,0.36826 1.58126,0.58431 1.43025,1.16176 -0.10203,0.39016 -0.33231,0.8001 -0.51173,0.91099 -0.17943,0.11089 -1.72337,-0.25337 -3.43098,-0.80948 l -3.10475,-1.0111 -1.79226,0.73702 c -1.72909,0.71104 -1.90951,0.71606 -5.11932,0.14222 -1.82989,-0.32715 -5.65602,-1.40941 -8.50251,-2.40504 l -5.17544,-1.81023 -4.43609,0.37281 c -5.05875,0.42513 -12.79664,2.50437 -17.62771,4.73671 l -2.84075,1.31265 -62.48351,0 -62.48352,0 -2.07614,-2.12563 c -1.14188,-1.16909 -2.16224,-2.54151 -2.26746,-3.04981 -0.10522,-0.5083 -0.76463,-1.36567 -1.46537,-1.90527 -1.45077,-1.11717 -3.77483,-1.6131 -10.928,-2.33195 -4.36819,-0.43897 -4.79278,-0.55184 -6.16536,-1.63894 l -1.47409,-1.16751 -4.18552,1.67534 c -3.89206,1.55788 -4.26802,1.79833 -5.36216,3.42942 -0.64716,0.96474 -1.37068,2.50266 -1.60784,3.4176 -0.23716,0.91495 -0.70007,2.12101 -1.02869,2.68014 l -0.59749,1.01661 -8.1927,0 c -6.38741,0 -8.28309,-0.10891 -8.60289,-0.49425 z" id="path3212"/>
  <path style="fill:#b22234;fill-opacity:1;fill-rule:evenodd;stroke:#b22234;stroke-width:1.4786967;stroke-linecap:round;stroke-linejoin:round;stroke-miterlimit:4;stroke-opacity:1;stroke-dasharray:none;stroke-dashoffset:0" d="m 148.39878,375.91012 0,-21.99561 323.09526,0 c 177.70238,0 323.08817,0.12477 323.07956,0.27726 -0.009,0.15249 -0.22886,1.1922 -0.48949,2.31046 l -0.47381,2.03321 -2.35534,0.26276 c -1.29541,0.14452 -3.52887,0.54563 -4.96321,0.89135 -2.5618,0.61748 -2.6601,0.6861 -5.56526,3.88614 -3.50229,3.85779 -5.66363,8.10646 -5.71035,11.22541 -0.0464,3.093 -0.41282,4.57858 -1.19021,4.82531 -0.38908,0.1235 -0.96658,0.87214 -1.28325,1.66364 -0.46468,1.1613 -0.8108,1.48319 -1.79303,1.66746 -0.96847,0.18168 -1.40905,0.58035 -2.15583,1.95076 -0.51621,0.94732 -1.46683,2.22147 -2.1125,2.83143 -0.64567,0.60996 -1.82697,2.06391 -2.62513,3.23099 -0.79813,1.16709 -1.90356,2.35944 -2.45649,2.64967 -0.55288,0.29024 -1.66286,1.20682 -2.46657,2.03686 -1.19682,1.236 -1.71145,1.50917 -2.84317,1.50917 -0.76005,0 -1.48468,0.16635 -1.61033,0.36967 -0.15201,0.24597 -101.60262,0.36968 -303.15465,0.36968 l -302.9262,0 0,-21.99562 z" id="path3214"/>
  <path style="fill:#b22234;fill-opacity:1;fill-rule:evenodd;stroke:#b22234;stroke-width:1.4786967;stroke-linecap:round;stroke-linejoin:round;stroke-miterlimit:4;stroke-opacity:1;stroke-dasharray:none;stroke-dashoffset:0" d="m 132.51208,392.18572 c -8.8806,-5.0479 -9.9946,-5.78414 -10.1026,-6.67646 -0.094,-0.77907 0.1739,-1.24629 1.2015,-2.09329 2.3662,-1.95045 2.0899,-2.05805 -6.9967,-2.72541 -6.4978,-0.47724 -35.954601,-4.38605 -36.399601,-4.83011 -0.108,-0.10778 -0.2795,-3.31462 -0.3812,-7.12632 l -0.1848,-6.93037 -1.3863,-2.24439 c -0.7624,-1.23442 -1.3863,-2.40405 -1.3863,-2.59918 0,-0.19513 -0.4108,-0.96024 -0.913,-1.70023 l -0.9131,-1.34545 36.217001,0 36.2169,0 0,21.99561 0,21.99562 -2.4953,-0.0232 -2.4953,-0.0232 -9.9812,-5.67355 0,-4e-5 z" id="path3216"/>
  <path style="fill:#b22234;fill-opacity:1;fill-rule:evenodd;stroke:#b22234;stroke-width:1.4786967;stroke-linecap:round;stroke-linejoin:round;stroke-miterlimit:4;stroke-opacity:1;stroke-dasharray:none;stroke-dashoffset:0" d="m 31.725779,308.6413 c 0.8293,-1.9848 0.697,-3.70268 -0.3373,-4.38039 -0.577,-0.37808 -0.9535,-1.0759 -1.1106,-2.05856 -0.1308,-0.8178 -1.3315,-3.36533 -2.669,-5.6626 -2.9539,-5.0736 -3.0981,-5.41015 -5.1539,-12.03149 -1.299,-4.18392 -1.9592,-5.70456 -3.1766,-7.31707 -0.8688,-1.15073 -1.6529,-2.67027 -1.8039,-3.49577 -0.35,-1.91408 0.2855,-5.17564 1.0085,-5.17564 0.8098,0 2.6122,-1.396 2.8761,-2.22765 0.2304,-0.72585 2.0515,-0.72975 341.046301,-0.72975 l 340.81468,0 0,22.18045 0,22.18045 -336.01497,0 -336.014911,0 0.5356,-1.28198 0,0 z" id="path3220"/>
  <path style="fill:#b22234;fill-opacity:1;fill-rule:evenodd;stroke:#b22234;stroke-width:1.4786967;stroke-linecap:round;stroke-linejoin:round;stroke-miterlimit:4;stroke-opacity:1;stroke-dasharray:none;stroke-dashoffset:0" d="m 703.96465,287.74153 0,-22.18176 50.92261,0.0937 50.92262,0.0937 0.0209,2.66444 c 0.0152,1.93844 0.18767,2.84871 0.63292,3.3407 0.39001,0.43096 0.52996,0.98998 0.38583,1.54115 -0.155,0.59272 -0.0343,0.97228 0.38368,1.20617 1.17332,0.65663 0.70807,1.41358 -0.86885,1.41358 -1.32937,0 -1.47869,0.093 -1.47869,0.92079 0,0.64561 0.3853,1.17037 1.28928,1.75595 0.73892,0.47865 1.29124,1.14214 1.29386,1.55428 0.003,0.39552 0.39903,1.14411 0.88114,1.66354 0.48211,0.51943 0.98097,1.38844 1.10857,1.93114 0.19869,0.84507 0.0415,1.10446 -1.09469,1.80668 l -1.3267,0.81995 0.86697,0.86697 0.86698,0.86697 2.40096,-0.73003 c 1.32053,-0.40153 2.67313,-0.73131 3.00577,-0.73287 0.36129,-0.002 1.23763,1.07629 2.17654,2.67732 0.86445,1.47407 1.85541,3.01284 2.20213,3.41948 0.34671,0.40665 1.02396,1.82065 1.50499,3.14223 1.15979,3.18644 3.85011,8.00225 5.36943,9.61153 0.67184,0.71163 1.39367,1.75133 1.60406,2.31047 0.3731,0.99152 0.34972,1.0166 -0.94744,1.0166 -1.14029,0 -1.26434,0.0791 -0.86977,0.55451 0.40875,0.49252 -6.34357,0.55451 -60.39647,0.55451 l -60.85666,0 0,-22.18175 z" id="path3222"/>
  <path style="fill:#b22234;fill-opacity:1;fill-rule:evenodd;stroke:#b22234;stroke-width:1.4786967;stroke-linecap:round;stroke-linejoin:round;stroke-miterlimit:4;stroke-opacity:1;stroke-dasharray:none;stroke-dashoffset:0" d="m 814.69787,280.31231 c -1.58084,-4.34381 -1.56637,-6.17205 0.091,-11.50598 l 1.0022,-3.22536 1.54131,-0.009 1.54132,-0.009 -0.38161,1.38206 c -0.20988,0.76013 -0.3076,2.79201 -0.21715,4.5153 0.13997,2.66671 0.0335,3.47206 -0.71494,5.40875 -0.951,2.46078 -2.52894,4.3594 -2.86215,3.44382 z" id="path3224"/>
  <path style="fill:#b22234;fill-opacity:1;fill-rule:evenodd;stroke:#b22234;stroke-width:1.4786967;stroke-linecap:round;stroke-linejoin:round;stroke-miterlimit:4;stroke-opacity:1;stroke-dasharray:none;stroke-dashoffset:0" d="m 8.5892794,219.71894 c -0.53,-1.22204 -1.5613,-3.15619 -2.2918,-4.29812 -0.7305,-1.14193 -1.7321,-2.98963 -2.2258,-4.10601 -0.8571,-1.93805 -0.8742,-2.12386 -0.3782,-4.11196 0.2857,-1.14521 0.6354,-3.24667 0.7772,-4.66992 0.1624,-1.63035 0.5714,-3.13478 1.1054,-4.06641 1.0617,-1.85209 1.5892,-7.17769 0.9235,-9.32335 -0.9689,-3.12263 -2.391,-6.65171 -3.2043,-7.95157 -0.4746,-0.75842 -0.8629,-1.79812 -0.8629,-2.31047 l 0,-0.93153 297.7242006,0 297.72418,0 0.22916,1.38628 c 0.12602,0.76245 0.23094,1.91834 0.23319,2.56864 0.004,0.65029 0.39988,2.48018 0.88363,4.06641 0.67577,2.2159 0.88925,3.81468 0.92149,6.90103 0.0513,4.91325 0.40265,6.30309 2.19686,8.69095 0.8741,1.16333 1.79215,3.09589 2.45297,5.16364 l 1.05605,3.3045 1.69921,0.22768 c 0.93461,0.12522 2.18049,0.5448 2.76868,0.9324 1.23312,0.81257 1.82774,0.685 3.36665,-0.72229 0.60997,-0.55779 1.63833,-1.28072 2.28526,-1.60651 0.64693,-0.32579 2.24488,-1.49897 3.55105,-2.60707 2.12104,-1.7994 2.39944,-2.19434 2.6052,-3.69553 0.12673,-0.92444 0.7358,-2.682 1.35349,-3.90567 0.84316,-1.67026 1.35863,-3.61988 2.06792,-7.82114 l 0.94478,-5.59627 -1.03416,-3.18143 c -0.56878,-1.74979 -1.09221,-3.38938 -1.16311,-3.64353 -0.1024,-0.36696 6.11545,-0.46209 30.20441,-0.46209 l 30.33336,0 0.22251,0.88659 c 0.39085,1.55724 0.0395,2.58836 -1.00692,2.9548 -0.75617,0.2648 -1.12525,0.20247 -1.59755,-0.26982 -0.33777,-0.3378 -0.76526,-0.61418 -0.94991,-0.61418 -0.5252,0 -1.82893,2.81371 -1.83455,3.95927 -0.007,1.53642 -0.39344,2.69487 -0.89779,2.69487 -0.24583,0 -0.82866,0.40629 -1.29519,0.90288 -0.75358,0.80217 -0.8304,1.18246 -0.68859,3.40954 0.15238,2.39302 0.1116,2.54705 -0.89935,3.39771 -1.97642,1.66305 -4.12815,7.07684 -2.81274,7.07684 0.23382,0 1.60454,0.67999 3.04608,1.5111 l 2.62096,1.5111 2.67829,-0.32938 2.67825,-0.32938 1.5632,1.59279 c 1.41168,1.43838 1.68993,1.57127 2.8706,1.37082 0.71905,-0.12208 2.55504,-0.77913 4.07994,-1.46011 1.52491,-0.68098 4.1476,-1.52155 5.82825,-1.86793 l 3.05565,-0.6298 3.70077,-3.84225 c 2.03539,-2.11323 4.5104,-4.31963 5.49994,-4.9031 0.98958,-0.58348 3.18785,-1.99054 4.88502,-3.12682 1.69721,-1.13628 3.38552,-2.06597 3.75183,-2.06597 0.36631,0 1.56675,-0.66541 2.66764,-1.47869 1.10089,-0.81329 2.17915,-1.4787 2.39608,-1.4787 0.21696,0 1.84911,-1.45559 3.62706,-3.23465 1.77795,-1.77905 3.99436,-3.7753 4.92535,-4.43609 l 1.69278,-1.20144 15.2129,0 15.21287,0 0,21.99561 0,21.99562 -377.75869,0 -377.7586606,0 -0.9636,-2.22189 0,0 z" id="path3226"/>
  <path style="fill:#b22234;fill-opacity:1;fill-rule:evenodd;stroke:#b22234;stroke-width:1.4786967;stroke-linecap:round;stroke-linejoin:round;stroke-miterlimit:4;stroke-opacity:1;stroke-dasharray:none;stroke-dashoffset:0" d="m 765.81438,199.94521 0,-21.99561 43.3443,0.0325 c 41.65418,0.0313 43.2506,0.0573 40.94142,0.66613 -1.32159,0.34848 -2.91879,0.90755 -3.54933,1.24238 -0.69076,0.3668 -1.2805,0.47474 -1.48368,0.27156 -0.20318,-0.20318 -1.46789,0.72933 -3.18176,2.34601 -3.34789,3.15805 -7.84581,6.33232 -8.44665,5.96098 -0.29835,-0.18439 -0.35296,0.0561 -0.18568,0.81776 0.18677,0.85033 0.0472,1.25726 -0.6585,1.92025 -0.56645,0.53215 -0.82691,1.10352 -0.70885,1.55499 0.34678,1.32608 1.63147,0.78181 4.00107,-1.6951 2.14062,-2.23757 2.37468,-2.38212 3.29238,-2.03321 1.92383,0.73144 3.46223,0.4148 7.32339,-1.50734 2.63513,-1.31181 4.41546,-2.5021 5.86938,-3.92414 l 2.08694,-2.04119 1.92417,0.63911 1.92418,0.63911 -1.79307,1.82865 c -0.98619,1.00575 -4.2495,3.66876 -7.25181,5.91779 l -5.45875,4.08914 -5.99977,1.95245 c -4.21717,1.37236 -6.18518,1.85323 -6.62378,1.61849 -0.96645,-0.51722 -1.41196,-0.39923 -1.41196,0.37398 0,0.38936 -0.74481,1.36354 -1.65514,2.16483 -0.91032,0.8013 -1.54801,1.56403 -1.41708,1.69495 0.36376,0.36376 3.18491,0.27234 3.81108,-0.1235 0.43236,-0.27332 0.73313,-0.008 1.36958,1.2071 0.71641,1.36804 0.81757,2.14371 0.83224,6.38158 0.009,2.65334 0.17739,4.98493 0.37379,5.18133 0.32539,0.32539 0.20729,1.09427 -0.9189,5.98283 l -0.19161,0.83177 -33.0788,0 -33.0788,0 0,-21.99562 z" id="path3228"/>
  <path style="fill:#b22234;fill-opacity:1;fill-rule:evenodd;stroke:#b22234;stroke-width:1.4786967;stroke-linecap:round;stroke-linejoin:round;stroke-miterlimit:4;stroke-opacity:1;stroke-dasharray:none;stroke-dashoffset:0" d="m 14.664479,132.57233 c 0.1174,-0.76258 0.3283,-2.88369 0.4687,-4.71358 0.1404,-1.82989 0.3879,-3.68481 0.5501,-4.12204 0.1621,-0.43724 2.4096,-4.08483 4.9943,-8.10576 4.7017,-7.31401 10.3805,-18.27045 12.1522,-23.445769 l 0.8226,-2.40288 253.481001,-0.0927 253.48098,-0.0927 -0.84297,1.50144 c -0.46365,0.82579 -1.17567,1.80274 -1.58232,2.17101 -0.40664,0.36827 -2.07764,2.02169 -3.7133,3.674269 -1.63566,1.65258 -3.23591,3.00469 -3.55604,3.00469 -0.32014,0 -1.44454,0.68673 -2.4987,1.52605 l -1.91662,1.52604 0.79587,0.84718 c 1.22041,1.29906 3.75918,1.50648 6.62445,0.54124 2.36533,-0.79683 7.74161,-3.30369 10.67438,-4.9773 1.47497,-0.84168 1.67296,-0.8705 2.45601,-0.35743 l 0.85169,0.55806 -1.43951,2.15566 c -2.48499,3.72132 -2.30754,5.46863 0.43884,4.32112 1.58169,-0.66087 4.27909,-0.10018 4.61538,0.95937 0.30764,0.96931 1.1769,0.81282 2.42654,-0.43683 0.60501,-0.605 1.77078,-1.28061 2.59061,-1.50137 1.87347,-0.50447 5.12471,-2.48072 5.12471,-3.11502 0,-0.84895 0.88049,-1.24669 3.92276,-1.77208 2.29343,-0.39608 3.31813,-0.77891 4.4287,-1.65458 0.79469,-0.62659 2.31827,-1.50789 3.3857,-1.95842 1.37201,-0.579079 1.94079,-1.024809 1.94079,-1.520899 0,-0.94386 1.77033,-3.5687 2.58029,-3.82577 0.3571,-0.11334 0.94651,-0.53453 1.30983,-0.93598 0.56985,-0.62968 1.12225,-0.72591 4.02275,-0.70073 2.60525,0.0226 3.14364,0.10934 2.39143,0.3852 -0.71554,0.26242 -1.02485,0.68932 -1.17649,1.62386 -0.11316,0.69731 -0.7992,2.04508 -1.52454,2.99503 -0.97036,1.2708 -1.31881,2.093409 -1.31881,3.113169 0,1.57412 0.81247,2.17912 1.56099,1.16238 0.25973,-0.35277 1.24036,-1.26274 2.17923,-2.02215 1.41278,-1.142739 1.78035,-1.292389 2.13239,-0.868189 0.23396,0.281909 1.21253,0.589219 2.17457,0.682909 2.94856,0.28715 5.09392,1.46786 6.01571,3.31078 0.44076,0.88123 1.48176,2.3069 2.31327,3.16814 1.50306,1.55675 1.52391,1.56456 3.56569,1.3369 1.12958,-0.12595 2.2969,-0.35785 2.59404,-0.51533 0.3279,-0.17377 1.07978,0.0242 1.91266,0.5035 1.20913,0.69589 1.52169,0.73581 2.6282,0.33571 0.6907,-0.24977 1.50424,-0.45412 1.80789,-0.45412 0.30365,0 1.74604,-1.00501 3.20533,-2.23335 3.2009,-2.69438 4.39876,-3.15276 9.15598,-3.50369 3.17573,-0.23428 4.15004,-0.48149 7.24114,-1.83734 1.96442,-0.861649 3.74469,-1.459709 3.95615,-1.329019 0.21145,0.1307 0.4341,1.467119 0.49473,2.969829 l 0.11027,2.7322 1.59093,0.52907 c 1.48022,0.49226 1.87884,0.45863 5.72995,-0.48343 2.27646,-0.55688 4.40164,-1.23913 4.72263,-1.51611 0.32099,-0.27698 0.86164,-0.5036 1.20144,-0.5036 0.53529,0 0.61784,0.48384 0.61784,3.6207 l 0,3.6207 1.94079,1.56656 c 1.06743,0.86161 2.35667,1.89365 2.86497,2.29342 l 0.92419,0.72686 -1.66354,-0.27659 c -3.20803,-0.53338 -7.93553,-0.14855 -10.44947,0.85063 -1.69976,0.67558 -1.87151,0.67784 -4.85448,0.0638 -1.7008,-0.3501 -4.40127,-0.63654 -6.00104,-0.63655 -2.86538,-2e-5 -2.92519,0.0192 -4.01769,1.29192 -1.06082,1.23579 -1.26162,1.30844 -4.62093,1.67178 -5.02013,0.54298 -5.70466,0.82462 -6.28608,2.58634 -0.26558,0.80471 -0.79148,1.74239 -1.16869,2.08375 -0.64604,0.58469 -0.74061,0.56918 -1.63134,-0.26761 l -0.94551,-0.88827 -2.42222,1.28956 -2.42225,1.28956 -0.55503,-0.83176 c -0.94973,-1.42325 -1.69621,-1.02483 -2.77045,1.47869 -0.54527,1.27076 -1.18954,3.14223 -1.43175,4.15884 -0.24221,1.0166 -1.14469,3.42872 -2.00555,5.36027 l -1.56517,3.51191 -292.50226,0.0926 -292.502241,0.0927 0.2134,-1.38651 0,0 z" id="path3230"/>
  <path style="fill:#b22234;fill-opacity:1;fill-rule:evenodd;stroke:#b22234;stroke-width:1.4786967;stroke-linecap:round;stroke-linejoin:round;stroke-miterlimit:4;stroke-opacity:1;stroke-dasharray:none;stroke-dashoffset:0" d="m 633.50898,132.5721 c -0.694,-4.19865 0.15403,-5.67936 3.6289,-6.3363 3.31812,-0.62732 3.69934,-1.5155 0.96635,-2.25142 -0.97964,-0.26379 -1.48968,-0.63991 -1.64288,-1.21149 -0.39535,-1.47515 -0.24683,-2.58449 0.41468,-3.09731 1.64064,-1.27187 4.50828,-3.09189 4.87161,-3.09189 0.22145,0 1.08982,0.49778 1.9297,1.10619 1.38214,1.00122 1.71195,1.08446 3.47545,0.8772 1.85297,-0.21778 2.08514,-0.14377 4.74056,1.51128 2.90141,1.80837 6.57599,3.15177 8.63431,3.15664 1.00523,0.002 1.30662,0.22192 1.90693,1.3891 0.39216,0.76245 1.22731,1.87487 1.85589,2.47205 1.44913,1.37672 1.46754,2.05646 0.0557,2.05646 -0.59796,0 -1.19203,0.16961 -1.32014,0.3769 -0.38346,0.62044 0.55278,2.89838 1.28701,3.13141 0.3753,0.11912 0.77568,0.45977 0.88975,0.75701 0.17995,0.46896 -1.88732,0.54044 -15.62864,0.54044 l -15.83601,0 -0.22914,-1.38627 z" id="path3232"/>
  <path style="fill:#b22234;fill-opacity:1;fill-rule:evenodd;stroke:#b22234;stroke-width:1.4786967;stroke-linecap:round;stroke-linejoin:round;stroke-miterlimit:4;stroke-opacity:1;stroke-dasharray:none;stroke-dashoffset:0" d="m 628.09833,133.49628 c 0.006,-1.35605 0.83141,-3.2147 1.52535,-3.43495 1.30501,-0.41419 1.61514,0.34814 0.90167,2.21635 -0.51707,1.35394 -0.8156,1.68069 -1.53548,1.68069 -0.49148,0 -0.89268,-0.20794 -0.89154,-0.46209 z" id="path3234"/>
  <path style="fill:#bf0a30;fill-opacity:1;fill-rule:evenodd;stroke:#bf0a30;stroke-width:1.4786967;stroke-linecap:round;stroke-linejoin:round;stroke-miterlimit:4;stroke-opacity:1;stroke-dasharray:none;stroke-dashoffset:0" d="m 605.77486,132.47968 c 0.5382,-0.81329 1.1228,-1.4787 1.2991,-1.4787 0.1763,0 0.32055,0.66541 0.32055,1.4787 0,1.44462 -0.0299,1.47869 -1.2991,1.47869 l -1.29911,0 0.97856,-1.47869 z" id="path3236"/>
  <path style="fill:#b22234;fill-opacity:1;fill-rule:evenodd;stroke:#b22234;stroke-width:1.4786967;stroke-linecap:round;stroke-linejoin:round;stroke-miterlimit:4;stroke-opacity:1;stroke-dasharray:none;stroke-dashoffset:0" d="m 781.14137,133.5887 c 0,-0.20332 -0.50999,-0.36967 -1.13332,-0.36967 -1.19116,0 -2.56146,-0.57029 -3.01985,-1.25679 -0.14938,-0.22371 -0.27414,-1.01708 -0.27725,-1.76305 -0.005,-1.2305 0.27224,-1.60723 2.99081,-4.06196 2.06254,-1.86237 3.32117,-3.34888 4.03826,-4.76942 1.58334,-3.13659 5.36303,-8.62352 7.61847,-11.05967 1.10869,-1.19752 2.76452,-2.53975 3.67962,-2.98274 2.44638,-1.18428 6.67242,-2.18805 9.24245,-2.19528 1.24692,-0.004 3.17945,-0.32522 4.32867,-0.72061 1.14184,-0.39285 3.70478,-1.14779 5.6954,-1.67764 1.99063,-0.52986 3.95203,-1.11897 4.35867,-1.30915 0.40665,-0.19018 6.64316,-1.86218 13.85892,-3.71555 7.21576,-1.853369 13.24607,-3.447949 13.40069,-3.543509 0.15461,-0.0956 0.28112,-1.16204 0.28112,-2.36997 l 0,-2.19623 29.60836,0 29.60836,0 -1.54755,1.84837 c -1.77373,2.11853 -3.09126,2.46854 -3.47887,0.92419 -0.1832,-0.72993 -0.46602,-0.92419 -1.34554,-0.92419 -0.64099,0 -1.20247,0.23166 -1.32305,0.54587 -0.1152,0.30022 -1.02493,1.13172 -2.0216,1.84776 -1.86939,1.34302 -2.26043,2.31924 -1.2612,3.148519 0.52019,0.43173 0.51048,0.96442 -0.0557,3.05279 -0.27834,1.02666 -1.60426,0.8225 -1.60426,-0.24703 0,-1.43359 -0.38988,-2.06344 -1.27727,-2.06344 -0.60899,0 -1.00515,-0.39177 -1.49529,-1.4787 -0.745,-1.652109 -1.08495,-1.765019 -2.36068,-0.784079 l -0.88198,0.67818 0.8263,1.117629 c 0.70065,0.94768 0.75872,1.24392 0.38184,1.94812 -0.2965,0.55401 -0.36169,1.60352 -0.19581,3.15246 0.21918,2.0467 0.14701,2.47883 -0.60887,3.64536 -0.54605,0.8427 -1.14869,1.32507 -1.65907,1.32799 -1.47207,0.008 -1.97229,0.43677 -2.2043,1.88767 -0.21249,1.32886 -0.44238,1.55575 -3.17098,3.1296 -1.61803,0.93328 -3.13594,1.60229 -3.37314,1.48667 -0.23719,-0.11561 -0.73456,-0.4192 -1.10527,-0.67465 -0.59279,-0.40848 -0.86648,-0.24424 -2.27129,1.3629 l -1.59728,1.82735 0.47335,1.57284 c 0.42819,1.42275 0.40681,1.63307 -0.224,2.20395 -0.51657,0.46748 -0.69737,1.13998 -0.69737,2.59391 0,1.61636 -0.79035,6.33998 -1.73997,10.39911 l -0.19459,0.83176 -44.13297,0 c -29.17553,0 -44.13297,-0.12529 -44.13297,-0.36967 z" id="path3238"/>
  <path style="fill:#b22234;fill-opacity:1;fill-rule:evenodd;stroke:#b22234;stroke-width:1.4786967;stroke-linecap:round;stroke-linejoin:round;stroke-miterlimit:4;stroke-opacity:1;stroke-dasharray:none;stroke-dashoffset:0" d="m 897.06465,97.02456 c -0.58699,-0.64861 -0.59195,-0.796099 -0.0613,-1.822169 0.72697,-1.4058 2.00949,-1.87959 2.66421,-0.98421 0.3869,0.52912 0.37536,0.74112 -0.0643,1.18073 -0.2947,0.29471 -0.53582,0.939829 -0.53582,1.433609 0,1.11233 -1.07652,1.21556 -2.00279,0.19204 z" id="path3240"/>
  <path style="fill:#b22234;fill-opacity:1;fill-rule:evenodd;stroke:#b22234;stroke-width:1.4786967;stroke-linecap:round;stroke-linejoin:round;stroke-miterlimit:4;stroke-opacity:1;stroke-dasharray:none;stroke-dashoffset:0" d="m 890.41724,103.23876 c -0.58851,-0.99628 -0.60746,-1.21499 -0.14533,-1.67712 0.29339,-0.29339 0.80905,-0.4249 1.15122,-0.2936 0.77185,0.29619 1.40682,2.44704 0.83649,2.83348 -0.73077,0.49516 -1.15858,0.29482 -1.84238,-0.86276 z" id="path3242"/>
  <path style="fill:#bf0a30;fill-opacity:1;fill-rule:evenodd;stroke:#bf0a30;stroke-width:1.4786967;stroke-linecap:round;stroke-linejoin:round;stroke-miterlimit:4;stroke-opacity:1;stroke-dasharray:none;stroke-dashoffset:0" d="m 50.148679,45.080351 c 0.1941,-0.77337 0.048,-0.95382 -1.069,-1.32253 -1.2431,-0.41026 -1.2937,-0.49745 -1.2937,-2.22831 l 0,-1.80135 2.2181,-0.25094 c 1.2199,-0.13802 2.218,-0.33562 2.218,-0.43911 0,-0.10349 -0.6383,-0.88069 -1.4186,-1.72712 -1.2466,-1.3524 -1.4985,-1.95064 -2.0782,-4.93509 -0.5349,-2.75402 -0.5812,-3.70752 -0.2449,-5.04297 0.228,-0.90575 0.4146,-3.23301 0.4146,-5.17168 0,-3.0377 -0.1317,-3.79421 -0.9529,-5.47383 l -0.9529,-1.94898 1.0667,-4.25125 c 1.3652,-5.4410693 1.5756,-5.5059593 5.1344,-1.5837395 2.204,2.4290695 3.19,3.1815695 6.276,4.7901095 2.0137,1.04958 4.5761,2.15884 5.6944,2.46503 1.1183,0.30619 3.1096,1.00672 4.4253,1.55672 1.4074,0.58841 3.1572,1.01843 4.2512,1.04478 l 1.8592,0.0448 0.1126,-1.34997 c 0.091,-1.09605 0.3882,-1.54096 1.5778,-2.36538 0.8059,-0.55848 1.5292,-0.94911 1.6074,-0.86808 0.078,0.081 0.2,0.6464 0.2706,1.25636 0.1123,0.96996 0,1.12354 -0.8759,1.2248 -0.807,0.093 -1.0489,0.35377 -1.2316,1.32769 -0.1904,1.0151 -0.049,1.39055 0.8726,2.31185 0.605,0.60496 1.4062,1.96215 1.7805,3.01598 0.5521,1.55456 0.8407,1.91604 1.5295,1.91604 1.1471,0 1.4381,-0.96135 0.7142,-2.35873 -0.8413,-1.62393 -1.1392,-3.70942 -0.6582,-4.60818 0.2978,-0.55634 0.2928,-1.18697 -0.018,-2.35081 -0.3874,-1.44859 -0.3382,-1.76248 0.5511,-3.51759 0.5371,-1.05989 0.9766,-2.11765 0.9766,-2.35057 0,-0.2329295 -0.7771,-2.0755195 -1.7268,-4.0946493 -1.5701,-3.33799 -1.6741,-3.72389 -1.1457,-4.25228 0.5284,-0.5284 0.8444,-0.49497 3.4827,0.3683 4.0034,1.30992 11.4115,3.33082 15.8403,4.3211498 2.033201,0.45465 7.772401,1.98074 12.753701,3.39132 17.239,4.8815695 42.347,10.9208295 61.9204,14.8937495 6.303,1.27935 16.6771,3.43669 23.0537,4.79411 25.9804,5.53061 57.1792,10.67669 96.1663,15.86214 3.37704,0.44917 -12.1836,0.52196 -119.7221,0.56003 l -123.603701,0.0438 0.2248,-0.89556 z" id="path3244"/>
  <path style="fill:#bf0a30;fill-opacity:1;fill-rule:evenodd;stroke:#bf0a30;stroke-width:1.4786967;stroke-linecap:round;stroke-linejoin:round;stroke-miterlimit:4;stroke-opacity:1;stroke-dasharray:none;stroke-dashoffset:0" d="m 75.510379,11.413251 0.7985,-1.29199 -0.9772,-0.3715495 c -1.2734,-0.48412 -1.2288,-0.49821 -1.3655,0.4312695 -0.065,0.44154 -0.2893,0.85902 -0.4984,0.92772 -0.4491,0.14749 -1.4511,-1.4896695 -1.7946,-2.9319795 -0.2132,-0.89496 -0.1354,-1.0166 0.6496,-1.0166 0.4904,0 0.9969,0.27445 1.1257,0.60989 0.2081,0.54234 0.3277,0.52187 1.08,-0.18484 1.0092,-0.94812 3.0155,-1.07241 3.3474,-0.20737 0.1255,0.32707 -0.1074,1.01041 -0.5256,1.54203 -0.4677,0.59468 -0.6201,1.0854895 -0.404,1.3015795 0.2161,0.21609 0.2065,0.74981 -0.026,1.41537 -0.2758,0.79139 -0.6105,1.06845 -1.2906,1.06845 l -0.9182,0 0.7985,-1.29198 z" id="path3246"/>
  <path style="fill:#b22234;fill-opacity:1;fill-rule:evenodd;stroke:#b22234;stroke-width:1.4786967;stroke-linecap:round;stroke-linejoin:round;stroke-miterlimit:4;stroke-opacity:1;stroke-dasharray:none;stroke-dashoffset:0" d="m 862.29835,41.817081 c 0.76928,-2.28736 1.84202,-5.03219 2.38387,-6.09963 0.8267,-1.62858 1.14772,-1.94056 1.99556,-1.9394 0.84863,0.001 1.11948,0.26669 1.69188,1.65859 0.58427,1.42076 0.89308,1.71418 2.16438,2.05651 1.7539,0.47228 2.51439,0.26239 2.51439,-0.69393 0,-0.42956 0.81634,-1.27039 2.12563,-2.1894 1.16909,-0.8206 2.44253,-1.84282 2.82985,-2.2716 0.38732,-0.42878 1.07296,-0.7796 1.52363,-0.7796 0.66926,0 8.17911,3.01131 8.47695,3.3991 0.1766,0.22993 3.15798,10.27424 3.15798,10.63927 0,0.25261 -5.04405,0.37892 -15.13141,0.37892 l -15.13141,0 1.3987,-4.15883 z" id="path3248"/>
  <path style="fill:#ffffff;fill-opacity:1;fill-rule:evenodd;stroke:#b22234;stroke-width:2.09119296;stroke-linecap:round;stroke-linejoin:round;stroke-miterlimit:4;stroke-opacity:1;stroke-dasharray:none;stroke-dashoffset:0" d="m 420.19953,529.19744 -19.94094,-0.14325 -0.85055,-1.29811 c -0.46781,-0.71397 -1.62773,-1.62284 -2.57762,-2.01973 -1.89005,-0.78971 -4.66501,-4.27221 -6.82175,-8.56112 -0.8826,-1.75512 -2.12907,-3.23866 -3.46261,-4.12115 -1.14598,-0.75838 -2.0836,-1.77249 -2.0836,-2.25359 0,-0.48109 -1.25942,-3.80227 -2.79872,-7.3804 -1.53929,-3.57812 -2.95708,-7.36426 -3.15062,-8.41364 -0.19355,-1.04938 -0.69857,-2.19567 -1.12227,-2.54731 -0.4237,-0.35163 -0.77036,-0.98152 -0.77036,-1.39974 0,-0.41822 -0.68768,-1.44808 -1.52818,-2.28858 l -1.52818,-1.52818 60.29581,0 60.29581,0 -1.39053,1.60572 c -0.76478,0.88315 -2.56682,2.45969 -4.00451,3.50343 -1.4377,1.04375 -4.12146,3.28857 -5.96394,4.9885 -4.20874,3.88315 -7.43079,5.94757 -14.30627,9.16623 -2.99192,1.40063 -7.41865,3.84137 -9.83717,5.42386 -5.52702,3.61645 -6.39569,4.06471 -7.89182,4.07236 -0.87329,0.004 -1.76574,0.80577 -3.20252,2.87539 -1.45984,2.10286 -2.32114,2.8692 -3.22473,2.8692 -1.78264,0 -2.84116,0.50628 -3.45446,1.65223 -0.42922,0.80202 -0.30718,1.19382 0.60094,1.92917 0.92284,0.74727 1.06984,1.24015 0.773,2.59166 -0.25207,1.14768 -0.63932,1.63009 -1.23991,1.54461 -0.48034,-0.0684 -9.84678,-0.18877 -20.8143,-0.26756 l 0,0 z" id="path3250"/>
  <path style="fill:#ffffff;fill-opacity:1;fill-rule:evenodd;stroke:#b22234;stroke-width:2.09119296;stroke-linecap:round;stroke-linejoin:round;stroke-miterlimit:4;stroke-opacity:1;stroke-dasharray:none;stroke-dashoffset:0" d="m 739.3415,526.5315 c -1.04091,-1.39424 -2.48048,-3.68802 -3.19904,-5.09728 -0.71857,-1.40925 -2.6528,-4.04418 -4.29828,-5.8554 l -2.99179,-3.29311 1.06244,-1.15067 c 1.91997,-2.07942 4.34839,-6.70851 4.03585,-7.69322 -0.21249,-0.6695 -1.05025,-1.04873 -2.86945,-1.29894 -1.41314,-0.19436 -2.81544,-0.20128 -3.11623,-0.0154 -0.93276,0.57648 -0.60625,1.3252 0.81325,1.86489 0.93439,0.35526 1.26098,0.77552 1.04336,1.34263 -0.17422,0.45402 -0.4589,1.39179 -0.63262,2.08393 -0.45827,1.82589 -0.99826,1.55428 -1.91545,-0.96347 -2.16728,-5.94931 -2.45386,-8.17181 -1.46575,-11.36741 0.31059,-1.00449 0.56472,-3.18064 0.56472,-4.83588 l 0,-3.00955 18.69004,-0.007 c 10.27952,-0.004 19.16055,-0.12845 19.73563,-0.27672 0.90731,-0.23393 1.21845,0.26786 2.35259,3.79407 0.9346,2.90581 1.92691,4.76232 3.48269,6.51573 1.19663,1.34864 2.34491,2.99696 2.55174,3.66294 0.20683,0.66597 1.85105,3.70343 3.65382,6.7499 1.80277,3.04647 3.78593,6.53513 4.40702,7.75257 1.09393,2.14427 2.63211,9.26686 2.63356,12.19481 l 7.1e-4,1.43769 -21.32313,0 -21.32313,0 -1.89255,-2.535 z" id="path4020"/>
  <path style="fill:#ffffff;fill-opacity:1;fill-rule:evenodd;stroke:#b22234;stroke-width:2.09119296;stroke-linecap:round;stroke-linejoin:round;stroke-miterlimit:4;stroke-opacity:1;stroke-dasharray:none;stroke-dashoffset:0" d="m 563.98911,492.13667 c -3.93055,-1.70907 -6.38982,-3.32563 -5.0593,-3.32563 0.32978,0 0.73027,-0.4117 0.88998,-0.9149 0.26442,-0.83311 1.2729,-0.9149 11.28117,-0.9149 7.9447,0 10.92807,0.16347 10.76447,0.5898 -0.12448,0.32438 0.0195,0.83559 0.3199,1.13601 0.37977,0.37977 0.19715,1.03646 -0.59925,2.1549 -1.4664,2.05937 -1.90168,2.02411 -2.64027,-0.21384 -0.33082,-1.00238 -0.81753,-1.95603 -1.08159,-2.11923 -0.80634,-0.49834 -5.6187,2.00274 -6.1664,3.2048 -0.28288,0.62087 -1.2043,1.36938 -2.0476,1.66335 -1.29838,0.45262 -2.16562,0.25954 -5.66111,-1.26036 z" id="path4022"/>
  <path style="fill:#b22234;fill-opacity:1;fill-rule:evenodd;stroke:#b22234;stroke-width:2.09119296;stroke-linecap:round;stroke-linejoin:round;stroke-miterlimit:4;stroke-opacity:1;stroke-dasharray:none;stroke-dashoffset:0" d="m 591.89648,486.85917 c 1.22964,-0.11044 3.11172,-0.10888 4.18239,0.003 1.07067,0.11234 0.0646,0.2027 -2.23571,0.2008 -2.30032,-0.002 -3.17632,-0.0938 -1.94668,-0.20425 z" id="path4024"/>
  <path style="fill:#ffffff;fill-opacity:1;fill-rule:evenodd;stroke:#b22234;stroke-width:2.09119296;stroke-linecap:round;stroke-linejoin:round;stroke-miterlimit:4;stroke-opacity:1;stroke-dasharray:none;stroke-dashoffset:0" d="m 599.62896,491.4817 c -0.19697,-0.31871 -1.03833,-0.57947 -1.86969,-0.57947 -0.83136,0 -1.6997,-0.30081 -1.92964,-0.66846 -0.22995,-0.36766 -1.00623,-0.93988 -1.72508,-1.27161 -1.25202,-0.57779 -1.22077,-0.60464 0.74304,-0.63854 1.15448,-0.0199 2.48045,-0.42491 3.03533,-0.92707 0.80439,-0.72796 1.17063,-0.77596 1.99457,-0.2614 0.55509,0.34666 1.36533,0.63029 1.80055,0.63029 1.12717,0 0.94833,1.06902 -0.46863,2.80136 -0.77485,0.94729 -1.35343,1.28223 -1.58045,0.9149 z" id="path4026"/>
  <path style="fill:#ffffff;fill-opacity:1;fill-rule:evenodd;stroke:#b22234;stroke-width:2.09119296;stroke-linecap:round;stroke-linejoin:round;stroke-miterlimit:4;stroke-opacity:1;stroke-dasharray:none;stroke-dashoffset:0" d="m 323.94857,490.25741 c -2.3722,-1.18887 -4.31309,-2.35356 -4.31309,-2.58818 0,-0.23462 3.20306,-0.42659 7.1179,-0.42659 l 7.11791,0 -0.91352,1.4377 c -1.4741,2.31995 -2.98851,3.79217 -3.87235,3.76447 -0.45307,-0.0142 -2.76466,-0.99852 -5.13685,-2.1874 z" id="path4028"/>
  <path style="fill:#ffffff;fill-opacity:1;fill-rule:evenodd;stroke:#b22234;stroke-width:2.09119296;stroke-linecap:round;stroke-linejoin:round;stroke-miterlimit:4;stroke-opacity:1;stroke-dasharray:none;stroke-dashoffset:0" d="m 283.81048,439.54486 c -0.5816,-0.78658 -1.2825,-2.02198 -1.5575,-2.74532 -0.3011,-0.79194 -1.4458,-1.77466 -2.8773,-2.47013 -1.9385,-0.94181 -2.4909,-1.53428 -2.993,-3.21021 -0.3387,-1.13038 -1.3332,-2.81114 -2.21,-3.73502 -1.4726,-1.55174 -1.9926,-1.728 -6.8221,-2.31237 -2.8754,-0.34792 -10.0038,-1.35054 -15.8409,-2.22803 -5.8371,-0.8775 -10.7067,-1.50171 -10.8212,-1.38715 -0.1146,0.11456 -0.4872,2.38276 -0.828,5.04044 -0.5164,4.02638 -0.7606,4.79338 -1.4646,4.59968 -0.4646,-0.12785 -3.315,-0.50246 -6.3342,-0.83246 -3.0191,-0.33 -6.6657,-0.92593 -8.1034,-1.32428 -1.4377,-0.39836 -7.5544,-1.21596 -13.5927,-1.81689 -6.0383,-0.60094 -14.1426,-1.68693 -18.0094,-2.41332 l -7.0307,-1.3207 -13.3584,-7.87013 c -15.6759,-9.23539 -27.2333,-16.26006 -27.0514,-16.44197 0.071,-0.071 137.2786,-0.1711 304.90594,-0.22251 l 304.77691,-0.0935 0.15825,1.2969 c 0.12579,1.0309 -0.6099,2.00808 -3.58687,4.76427 -2.4193,2.23992 -3.64076,3.73919 -3.45041,4.23521 0.16207,0.4223 -0.33695,1.89504 -1.10891,3.27275 -0.77191,1.37771 -1.56463,3.79885 -1.76152,5.38032 -0.19688,1.58146 -1.0447,5.6124 -1.884,8.95763 -1.24034,4.94373 -1.4514,6.60735 -1.12731,8.88757 0.21926,1.54293 0.41583,3.48624 0.43685,4.31847 l 0.0382,1.51315 -228.72244,-0.20615 -228.72239,-0.20615 -1.0575,-1.43014 z" id="path4030"/>
  <path style="fill:#ffffff;fill-opacity:1;fill-rule:evenodd;stroke:#b22234;stroke-width:2.09119296;stroke-linecap:round;stroke-linejoin:round;stroke-miterlimit:4;stroke-opacity:1;stroke-dasharray:none;stroke-dashoffset:0" d="m 73.092179,351.5765 c -0.7348,-0.86262 -1.849,-2.41771 -2.4759,-3.45576 -1.0051,-1.66443 -1.4503,-1.92415 -3.7687,-2.19874 -3.1936,-0.37823 -4.1107,-0.84234 -2.9491,-1.49241 0.6173,-0.34546 0.7492,-0.90568 0.506,-2.14954 -0.5692,-2.91126 -1.5879,-3.95041 -4.2561,-4.34133 -4.031,-0.5906 -6.2271,-2.14978 -8.0365,-5.70575 -2.4294,-4.7746 -4.4146,-7.05778 -6.1367,-7.05778 -0.7979,0 -3.3072,-0.86092 -5.5761,-1.91315 -2.2689,-1.05224 -5.219,-2.02092 -6.5557,-2.15263 -1.879,-0.18513 -2.6683,-0.56124 -3.4789,-1.65757 -1.0113,-1.36793 -1.0189,-1.54144 -0.2141,-4.90515 l 0.8344,-3.48705 387.423971,-10e-4 c 213.08318,-8.1e-4 391.83512,-0.15564 397.22647,-0.34406 l 9.80247,-0.34258 0,1.66226 c 0,1.2565 -0.31253,1.80466 -1.28028,2.24561 -0.83982,0.38264 -1.60008,1.47262 -2.20976,3.1681 -0.73819,2.05281 -1.29482,2.73741 -2.70454,3.32644 -2.28312,0.95393 -3.93333,0.93817 -5.85576,-0.0559 -1.51141,-0.7816 -1.54241,-0.7711 -1.54241,0.5228 0,0.97869 0.27483,1.32042 1.06201,1.32042 1.52866,0 1.77495,1.20252 0.82011,4.00474 -1.22225,3.58715 -1.13944,3.83723 1.27108,3.83723 1.42384,0 2.20877,0.26362 2.41941,0.81256 0.26391,0.68773 0.51516,0.62749 1.63568,-0.3921 1.71843,-1.56364 1.34202,-0.43194 -1.15424,3.47037 -1.74285,2.72448 -1.90089,2.83507 -3.6462,2.55185 -5.13247,-0.83289 -17.54485,8.88278 -18.82116,14.73208 l -0.34253,1.56982 -360.33038,-10e-4 -360.330341,-0.001 -1.3362,-1.5684 0,0 z" id="path4032"/>
  <path style="fill:#ffffff;fill-opacity:1;fill-rule:evenodd;stroke:#b22234;stroke-width:2.09119296;stroke-linecap:round;stroke-linejoin:round;stroke-miterlimit:4;stroke-opacity:1;stroke-dasharray:none;stroke-dashoffset:0" d="m 39.384579,333.28062 c -1.8765,-1.99749 -0.9221,-2.11201 2.6647,-0.3197 l 3.2512,1.62464 -2.345,0 c -1.8244,0 -2.6171,-0.28972 -3.5709,-1.30494 z" id="path4034"/>
  <path style="fill:#ffffff;fill-opacity:1;fill-rule:evenodd;stroke:#b22234;stroke-width:2.09119296;stroke-linecap:round;stroke-linejoin:round;stroke-miterlimit:4;stroke-opacity:1;stroke-dasharray:none;stroke-dashoffset:0" d="m 33.480379,333.01716 c -0.2271,-0.86847 -0.016,-1.04559 1.246,-1.04559 0.8357,0 1.5195,0.0984 1.5195,0.21864 0,0.12025 0.1428,0.59077 0.3173,1.04559 0.2458,0.64047 -0.035,0.82696 -1.246,0.82696 -1.1237,0 -1.6403,-0.29406 -1.8368,-1.0456 z" id="path4036"/>
  <path style="fill:#b22234;fill-opacity:1;fill-rule:evenodd;stroke:#b22234;stroke-width:2.09119296;stroke-linecap:round;stroke-linejoin:round;stroke-miterlimit:4;stroke-opacity:1;stroke-dasharray:none;stroke-dashoffset:0" d="m 61.113679,354.15075 c -1.3454,-1.34548 -2.5662,-3.35399 -2.238,-3.6822 0.3973,-0.39736 3.3862,1.86087 3.7632,2.84329 0.4874,1.2701 -0.5328,1.83125 -1.5252,0.83891 z" id="path4038"/>
  <path style="fill:#b22234;fill-opacity:1;fill-rule:evenodd;stroke:#b22234;stroke-width:2.09119296;stroke-linecap:round;stroke-linejoin:round;stroke-miterlimit:4;stroke-opacity:1;stroke-dasharray:none;stroke-dashoffset:0" d="m 57.747679,364.20453 c -0.321,-0.38683 -0.7229,-1.50431 -0.893,-2.48329 l -0.3092,-1.77997 1.3517,2.27526 c 0.7435,1.25139 1.3518,2.36887 1.3518,2.48329 0,0.47445 -0.9591,0.15805 -1.5013,-0.49529 z" id="path4040"/>
  <path style="fill:#ffffff;fill-opacity:1;fill-rule:evenodd;stroke:#b22234;stroke-width:2.09119296;stroke-linecap:round;stroke-linejoin:round;stroke-miterlimit:4;stroke-opacity:1;stroke-dasharray:none;stroke-dashoffset:0" d="m 22.216079,263.96195 c -0.015,-2.58186 -0.6124,-3.65923 -2.2074,-3.97823 -1.1565,-0.23131 -2.0224,-1.04049 -3.3738,-3.15312 -2.44,-3.81433 -2.8651,-8.53129 -1.2783,-14.18224 l 1.08,-3.8457 -2.7268,-3.10033 -2.7267,-3.10033 -0.02,-4.03274 c -0.011,-2.218 -0.2125,-4.44443 -0.448,-4.94763 -0.4078,-0.87091 19.3023,-0.91489 410.024161,-0.91489 225.74892,0 410.45255,0.0877 410.45255,0.19494 0,0.6702 -2.25232,5.06491 -3.36447,6.56481 -0.75936,1.02404 -1.47121,2.86038 -1.65973,4.28126 -0.22616,1.7051 -0.74384,2.86829 -1.64488,3.69621 l -1.31478,1.20812 0.34076,-2.67247 0.34076,-2.67248 -2.36269,-0.32384 c -4.22787,-0.57949 -9.62372,-4.09377 -10.7618,-7.00907 -0.58914,-1.50908 -1.40408,-1.50908 -1.64848,0 -0.25963,1.6028 1.69355,5.05915 3.05878,5.41287 1.04178,0.26991 2.75332,3.14178 4.32966,7.26499 0.5526,1.44532 3.53542,3.92099 4.72422,3.92099 0.76694,0 2.64347,6.83149 2.64347,9.62339 0,1.34909 -0.38906,3.20522 -0.86455,4.12474 -0.47548,0.91951 -0.93921,2.55253 -1.03049,3.62893 -0.25214,2.97446 -1.53352,4.58046 -3.65446,4.58046 -1.54314,0 -1.76967,-0.16874 -1.76967,-1.3182 0,-0.89359 -0.4149,-1.50725 -1.28807,-1.90509 -0.70845,-0.32279 -1.90362,-1.47509 -2.65592,-2.56068 -1.34516,-1.94105 -1.41302,-1.96913 -4.09205,-1.69263 -2.63767,0.27223 -2.76926,0.22215 -4.14051,-1.57562 -1.68357,-2.20731 -1.77391,-3.42199 -0.38567,-5.18683 1.02584,-1.30417 1.02584,-1.31437 -0.008,-2.25025 -1.00137,-0.90623 -1.06625,-0.90395 -1.79811,0.0633 -0.72612,0.95965 -0.76,0.94348 -0.77589,-0.37048 -0.01,-0.8292 0.41871,-1.663 1.08146,-2.10302 0.98605,-0.65473 1.05992,-1.03447 0.72392,-3.72335 -0.30631,-2.45239 -0.55234,-2.99427 -1.35938,-2.99427 -0.54199,0 -0.98537,-0.20015 -0.98537,-0.44478 0,-0.93233 1.22418,-4.0345 1.90382,-4.82437 0.39058,-0.45395 0.71017,-1.10091 0.71017,-1.43769 0,-2.01127 -3.99988,1.23084 -5.60016,4.53921 -1.05349,2.17799 -1.08366,2.47105 -0.33909,3.2938 0.71231,0.78709 0.73422,1.36795 0.17064,4.52143 -0.57027,3.19125 -0.539,3.90004 0.2649,6.00508 0.50132,1.31271 1.47424,2.91541 2.16204,3.56154 0.68774,0.64613 1.25048,1.55933 1.25048,2.02933 0,0.47 0.32032,1.29264 0.71189,1.82808 0.39153,0.53545 0.59364,1.42566 0.44909,1.97825 -0.21399,0.81838 -0.56416,0.9431 -1.88814,0.67253 -0.89399,-0.18269 -3.12519,-0.46906 -4.95817,-0.63638 -4.58117,-0.41818 -4.1415,0.81118 0.72962,2.04006 1.97774,0.49894 3.95225,1.26353 4.38784,1.6991 0.70735,0.70737 -38.70369,0.79192 -369.1143,0.79192 -203.4484,0 -378.766901,0.15582 -389.596701,0.34626 l -19.6905,0.34626 -0.01,-1.26116 z" id="path4042"/>
  <path style="fill:#ffffff;fill-opacity:1;fill-rule:evenodd;stroke:#b22234;stroke-width:2.09119296;stroke-linecap:round;stroke-linejoin:round;stroke-miterlimit:4;stroke-opacity:1;stroke-dasharray:none;stroke-dashoffset:0" d="m 1.7093794,177.05502 c 0,-0.0926 0.38,-1.32766 0.8445,-2.74469 0.5909,-1.80244 1.6786,-3.3831 3.6209,-5.26166 2.2978,-2.22246 3.2334,-3.73528 5.4289996,-8.77804 2.3494,-5.3961 2.6527,-6.5082 2.6527,-9.72561 0,-2.35565 0.3642,-4.59124 1.0359,-6.35901 1.1143,-2.93246 1.1716,-2.66021 -1.2435,-5.9036 -0.258,-0.34648 -0.3124,-1.25451 -0.1208,-2.01787 l 0.3484,-1.38791 292.252601,0 c 283.17135,0 292.23672,0.0298 291.74001,0.9579 -0.28194,0.52684 -0.88844,1.26975 -1.34767,1.65091 -1.00372,0.83301 -4.45006,8.13856 -4.45006,9.43324 0,1.80618 1.61602,1.63011 3.45387,-0.3763 0.97575,-1.0653 1.77412,-2.20282 1.77412,-2.52781 0,-0.325 0.58982,-1.14501 1.3107,-1.82225 0.72089,-0.67724 2.19126,-2.59826 3.26749,-4.26894 1.4274,-2.21584 2.27501,-3.03884 3.13308,-3.04218 0.64696,-0.003 1.1763,0.1169 1.1763,0.26537 0,0.14847 -1.06834,2.55614 -2.37408,5.35038 -2.45972,5.26362 -4.02911,11.11247 -3.29301,12.27239 0.74112,1.1678 0.47664,2.46214 -0.94093,4.60421 -1.36032,2.0556 -1.37067,2.14011 -0.72371,5.9223 0.49321,2.88316 0.5091,4.11207 0.0639,4.9438 -1.04695,1.95629 -2.5992,7.50216 -2.31045,8.25471 0.23902,0.62285 -43.05871,0.72893 -297.5098,0.72893 -163.78426,0 -297.7895606,-0.0757 -297.7895606,-0.16827 z" id="path4044"/>
  <path style="fill:#ffffff;fill-opacity:1;fill-rule:evenodd;stroke:#b22234;stroke-width:2.09119296;stroke-linecap:round;stroke-linejoin:round;stroke-miterlimit:4;stroke-opacity:1;stroke-dasharray:none;stroke-dashoffset:0" d="m 622.72611,175.1321 c -0.57941,-1.29393 -1.75282,-3.52889 -2.60758,-4.96659 -1.51491,-2.54806 -1.53631,-2.67992 -0.84856,-5.22798 0.52137,-1.93167 0.57484,-3.368 0.20484,-5.50264 -0.42606,-2.45805 -0.3343,-3.35426 0.61561,-6.01218 0.71739,-2.00731 1.1341,-4.47891 1.16608,-6.91628 0.0412,-3.14301 0.20833,-3.84308 0.97537,-4.08653 1.02331,-0.32479 1.5724,-1.89917 1.34052,-3.84367 -0.11257,-0.94405 0.3017,-1.57701 1.62533,-2.48329 2.82406,-1.93363 3.71298,-1.66159 3.71298,1.13628 0,2.67025 0.63764,2.96151 3.18682,1.45568 1.09766,-0.6484 1.51836,-1.30025 1.51836,-2.35259 l 0,-1.45568 15.68395,-0.0784 c 8.62617,-0.0431 15.97802,-0.10194 16.33744,-0.1307 0.47287,-0.0378 0.69503,1.37116 0.80377,5.09762 0.14395,4.93369 0.0946,5.20152 -1.1763,6.37932 -0.72961,0.67618 -1.32787,1.53472 -1.32948,1.90787 -0.0102,2.38552 -1.14234,4.45332 -2.89596,5.28956 -1.84448,0.87957 -1.85709,0.90839 -1.70158,3.8883 0.15092,2.89186 0.2302,3.04058 2.15801,4.04776 l 2.00133,1.0456 1.74114,-1.99228 c 0.95762,-1.09575 2.26247,-3.27678 2.89967,-4.84673 1.0185,-2.50943 1.47791,-3.0073 3.80081,-4.119 1.92043,-0.91908 2.89661,-1.12844 3.57322,-0.76633 1.99783,1.0692 3.71039,4.18929 4.92508,8.97292 0.67793,2.66977 1.94821,6.58952 2.82286,8.71056 1.02262,2.47988 1.59027,4.76089 1.59027,6.39026 l 0,2.53383 -30.53527,0.13896 -30.53527,0.13896 -1.05346,-2.35259 z" id="path4046"/>
  <path style="fill:#ffffff;fill-opacity:1;fill-rule:evenodd;stroke:#b22234;stroke-width:2.09119296;stroke-linecap:round;stroke-linejoin:round;stroke-miterlimit:4;stroke-opacity:1;stroke-dasharray:none;stroke-dashoffset:0" d="m 851.36135,177.74609 c -0.21223,-0.34339 -20.2723,-0.52547 -58.45356,-0.53058 l -58.13045,-0.008 1.96315,-1.69131 c 1.07974,-0.93023 2.72655,-2.8504 3.65959,-4.26706 0.93304,-1.41665 1.91294,-2.85921 2.17756,-3.20567 0.6946,-0.90942 -0.67171,-3.88931 -2.01798,-4.40117 -0.77837,-0.29593 -1.32,-1.23374 -1.80461,-3.12459 -0.85988,-3.35507 -0.68853,-3.51858 6.0753,-5.79701 6.29866,-2.12174 11.98395,-2.61334 14.50729,-1.25443 1.78903,0.96346 1.80836,0.96179 4.82471,-0.41636 1.66566,-0.76103 4.19714,-1.49175 5.62551,-1.62382 2.74756,-0.25405 3.92999,-1.21484 6.29054,-5.11143 0.69053,-1.13986 1.59369,-1.83767 2.65963,-2.0549 0.88771,-0.18091 1.88756,-0.49798 2.22189,-0.7046 0.85531,-0.52862 0.75622,-3.26113 -0.1695,-4.67396 -0.64548,-0.98512 -0.66765,-1.47864 -0.1307,-2.90895 0.62625,-1.66819 0.71908,-1.71266 2.94152,-1.4092 1.26217,0.17235 20.97341,0.31336 43.80275,0.31336 l 41.50789,0 -0.57601,1.07628 c -0.47665,0.89063 -0.2943,1.51528 1.05726,3.62149 l 1.63327,2.54523 -1.00858,1.99858 c -1.74772,3.46328 -1.82847,4.22234 -0.62845,5.90761 0.93064,1.30697 1.25958,1.4609 2.05728,0.96273 1.49087,-0.93107 2.29114,-0.29731 5.31755,4.21107 l 2.82825,4.21318 2.44318,0.0177 c 1.87301,0.0136 2.81315,-0.29364 4.0285,-1.31628 1.4033,-1.18081 1.52377,-1.49582 1.04932,-2.74374 -0.2948,-0.77538 -0.90898,-1.82191 -1.36484,-2.32563 -0.45586,-0.50372 -0.59358,-0.91586 -0.30604,-0.91586 0.89585,0 2.19144,1.78454 3.0384,4.18507 0.85801,2.43188 0.73236,3.65356 -0.37664,3.66201 -1.24852,0.01 -6.41272,2.66724 -7.85293,4.04145 l -1.43225,1.36661 -0.33437,-1.67186 c -0.44854,-2.24269 -0.81232,-2.36289 -2.87981,-0.95156 -1.35722,0.92649 -1.72976,1.51935 -1.61764,2.57436 0.1202,1.13111 -0.25331,1.60448 -2.13713,2.70847 -1.25553,0.73579 -2.73263,1.3378 -3.28245,1.33781 -0.54981,10e-6 -1.64047,0.80314 -2.42369,1.78474 -0.78322,0.9816 -2.27666,2.06612 -3.31876,2.41004 -1.0421,0.34393 -3.87563,1.5405 -6.29673,2.65905 -4.94446,2.28435 -4.72829,2.22114 -5.16722,1.51093 z" id="path4048"/>
  <path style="fill:#ffffff;fill-opacity:1;fill-rule:evenodd;stroke:#b22234;stroke-width:2.09119296;stroke-linecap:round;stroke-linejoin:round;stroke-miterlimit:4;stroke-opacity:1;stroke-dasharray:none;stroke-dashoffset:0" d="m 849.53155,88.365971 c 0,-0.76694 1.83814,-1.58678 3.55767,-1.58678 1.51821,0 1.53922,-0.0406 1.89668,-3.66832 0.24762,-2.51296 0.84148,-4.58084 1.88554,-6.56563 0.83824,-1.59352 1.80169,-3.82391 2.141,-4.95642 0.52686,-1.7585 0.49042,-2.1989 -0.2496,-3.01661 -1.10104,-1.21664 -1.16377,-6.04823 -0.11122,-8.56733 0.50853,-1.21709 0.65785,-2.75181 0.45704,-4.69753 -0.20788,-2.01409 -0.0279,-3.70369 0.59371,-5.57535 l 0.89198,-2.68548 13.81213,-0.10166 c 7.59668,-0.0559 14.56121,-0.11472 15.47675,-0.1307 l 1.6646,-0.029 2.68811,8.88758 2.68811,8.88757 2.83576,0.15183 c 3.4225,0.18325 4.14276,0.93874 4.14276,4.3454 0,2.11364 0.23072,2.66174 1.60851,3.82106 1.94435,1.63607 2.57387,1.70248 2.57387,0.27151 0,-1.90543 2.14486,-0.97277 4.29163,1.86616 1.08718,1.4377 1.97787,2.99579 1.97932,3.46243 0.005,1.51263 -2.08376,5.61429 -3.01379,5.91899 -0.49751,0.163 -1.91464,1.23605 -3.14918,2.38455 l -2.2446,2.08818 -28.20839,0 c -17.77128,0 -28.20839,-0.18663 -28.20839,-0.5044 z" id="path4050"/>
  <path style="fill:#ffffff;fill-opacity:1;fill-rule:evenodd;stroke:#b22234;stroke-width:2.09119296;stroke-linecap:round;stroke-linejoin:round;stroke-miterlimit:4;stroke-opacity:1;stroke-dasharray:none;stroke-dashoffset:0" d="m 34.228979,88.644641 c 0,-0.68345 3.3017,-9.02261 4.6032,-11.62659 0.8378,-1.67608 2.7482,-6.74078 4.2453,-11.25487 1.4972,-4.5141 3.1771,-8.78588 3.7332,-9.49283 1.2525,-1.59231 1.2514,-1.69556 -0.034,-3.33039 -1.3849,-1.76055 -1.3958,-3.80225 -0.02,-3.80225 0.5639,0 1.4461,-0.44598 1.9605,-0.99106 0.9119,-0.9663 3.9807,-0.99588 122.806501,-1.18366 90.4715,-0.14296 122.05794,-0.34672 122.59614,-0.79082 0.54932,-0.45328 3.13173,-0.29666 10.65815,0.6464 5.46324,0.68455 17.57909,1.96201 26.92411,2.8388 9.34502,0.87679 17.34383,1.69622 17.77514,1.82095 1.38902,0.40171 21.11007,1.84439 35.72421,2.61338 18.7013,0.98405 47.32282,1.77083 73.67132,2.02517 l 21.30403,0.20565 0,-1.68964 c 0,-0.92931 0.14961,-2.78115 0.33246,-4.1152 0.2889,-2.10779 0.49437,-2.42556 1.56839,-2.42556 1.6258,0 3.32713,1.75172 3.32713,3.42568 0,2.33257 1.65561,8.82505 2.49265,9.77497 0.55912,0.63451 1.58247,0.9149 3.33916,0.9149 1.90299,0 2.53296,0.19504 2.53296,0.7842 0,0.55638 0.56954,0.78627 1.96049,0.79133 2.86624,0.0104 4.18279,0.48375 4.47721,1.60959 0.21353,0.81649 0.74349,0.99726 2.92373,0.99726 2.00004,0 2.66293,-0.19221 2.66293,-0.77214 0,-0.42468 0.61123,-1.17264 1.35828,-1.66213 1.08854,-0.71324 1.55433,-0.76754 2.3455,-0.27345 0.54297,0.33909 1.61678,0.61653 2.38623,0.61653 0.76947,0 2.4783,0.67417 3.79739,1.49816 1.31909,0.82399 3.7639,2.04888 5.43289,2.72198 2.48908,1.00384 3.2161,1.11044 4.0446,0.59304 1.31116,-0.81884 1.54704,-0.79545 1.54704,0.1534 0,1.22279 1.95309,2.87539 3.39819,2.87539 0.93606,0 1.307,0.28224 1.307,0.99446 0,0.64539 0.5779,1.19591 1.6464,1.56839 3.30453,1.15197 5.01132,0.6701 8.41897,-2.3769 1.0791,-0.96489 2.19054,-1.75434 2.46986,-1.75434 0.27933,0 0.87284,0.70578 1.31892,1.56839 0.80806,1.56261 1.99983,2.03932 2.61399,1.0456 0.17771,-0.28754 2.2582,-0.5228 4.62332,-0.5228 4.22358,0 4.31674,0.0279 5.22667,1.5684 1.04372,1.76684 1.49865,1.91332 2.43578,0.78419 0.85691,-1.03252 3.65959,-1.04661 3.65959,-0.0184 0,0.95768 -0.54268,1.24777 -10.38392,5.55113 -5.49956,2.40484 -8.67202,4.11906 -10.06385,5.43796 -1.11792,1.05932 -2.03256,2.14146 -2.03256,2.40475 0,0.28909 -100.43574,0.47871 -253.5571,0.47871 -139.4565,0 -253.557201,-0.10158 -253.557201,-0.22573 z" id="path4052"/>
<use xlink:href="#Canton" style="fill:#002868;fill-opacity:1"/>
<g clip-path="url(#clip1x)">
  <use id="use3987" transform="translate(224.3,152.8)scale(587.463,587.463)" xlink:href="#u"/>
</g>
<use xlink:href="#Canton" style="fill:none;stroke:#002868;stroke-width:2.15623927;stroke-linejoin:round;stroke-miterlimit:4;stroke-opacity:1;stroke-dasharray:none;stroke-dashoffset:0"/>
<path d="M237.261,311.357H445.60V312.157L237.261,312.835119635Z" style="fill:#002868;fill-opacity:1"/>
</svg>